HIERARCHY
ROOT Hips
{
	OFFSET 0.000000 0.000000 0.000000
	CHANNELS 6 Xposition Yposition Zposition Yrotation Xrotation Zrotation
	JOINT Chest
	{
		OFFSET 0.000000 -0.009281 11.569106
		CHANNELS 3 Yrotation Xrotation Zrotation
		JOINT Chest2
		{
			OFFSET -0.000000 0.016865 9.269641
			CHANNELS 3 Yrotation Xrotation Zrotation
			JOINT Chest3
			{
				OFFSET -0.000000 0.000001 8.374491
				CHANNELS 3 Yrotation Xrotation Zrotation
				JOINT Chest4
				{
					OFFSET -0.000000 0.000001 8.374493
					CHANNELS 3 Yrotation Xrotation Zrotation
					JOINT Neck
					{
						OFFSET -0.000000 0.000002 12.152554
						CHANNELS 3 Yrotation Xrotation Zrotation
						JOINT Head
						{
							OFFSET -0.000000 0.040101 7.802319
							CHANNELS 3 Yrotation Xrotation Zrotation
							End Site
							{
								OFFSET -0.000000 0.020947 14.853096
							}
						}
					}
					JOINT RightCollar
					{
						OFFSET 2.894404 0.000001 6.791374
						CHANNELS 3 Yrotation Xrotation Zrotation
						JOINT RightShoulder
						{
							OFFSET 13.574684 0.000001 0.000000
							CHANNELS 3 Yrotation Xrotation Zrotation
							JOINT RightElbow
							{
								OFFSET 23.923903 0.000002 0.000000
								CHANNELS 3 Yrotation Xrotation Zrotation
								JOINT RightWrist
								{
									OFFSET 19.846718 0.012767 0.000000
									CHANNELS 3 Yrotation Xrotation Zrotation
									End Site
									{
										OFFSET 14.973145 0.000001 0.000000
									}
								}
							}
						}
					}
					JOINT LeftCollar
					{
						OFFSET -2.894404 0.000001 6.791374
						CHANNELS 3 Yrotation Xrotation Zrotation
						JOINT LeftShoulder
						{
							OFFSET -13.574684 -0.000001 0.000000
							CHANNELS 3 Yrotation Xrotation Zrotation
							JOINT LeftElbow
							{
								OFFSET -23.923903 -0.000002 0.000000
								CHANNELS 3 Yrotation Xrotation Zrotation
								JOINT LeftWrist
								{
									OFFSET -19.846718 0.012763 0.000000
									CHANNELS 3 Yrotation Xrotation Zrotation
									End Site
									{
										OFFSET -14.973145 -0.000001 0.000000
									}
								}
							}
						}
					}
				}
			}
		}
	}
	JOINT RightHip
	{
		OFFSET 9.469263 0.004643 0.045487
		CHANNELS 3 Yrotation Xrotation Zrotation
		JOINT RightKnee
		{
			OFFSET 0.000000 0.002661 -40.478676
			CHANNELS 3 Yrotation Xrotation Zrotation
			JOINT RightAnkle
			{
				OFFSET 0.000000 0.049106 -35.224068
				CHANNELS 3 Yrotation Xrotation Zrotation
				JOINT RightToe
				{
					OFFSET -0.000001 12.539529 -6.151390
					CHANNELS 3 Yrotation Xrotation Zrotation
					End Site
					{
						OFFSET -0.000001 5.044994 -1.291870
					}
				}
			}
		}
	}
	JOINT LeftHip
	{
		OFFSET -9.469263 0.004641 0.045487
		CHANNELS 3 Yrotation Xrotation Zrotation
		JOINT LeftKnee
		{
			OFFSET 0.000000 0.002661 -40.478676
			CHANNELS 3 Yrotation Xrotation Zrotation
			JOINT LeftAnkle
			{
				OFFSET 0.000000 0.049106 -35.224068
				CHANNELS 3 Yrotation Xrotation Zrotation
				JOINT LeftToe
				{
					OFFSET -0.000001 12.539529 -6.151390
					CHANNELS 3 Yrotation Xrotation Zrotation
					End Site
					{
						OFFSET -0.000001 5.044994 -1.291870
					}
				}
			}
		}
	}
}
MOTION
Frames: 13
Frame Time: 0.016667
47.703712 32.502029 83.349030 -3.785814 2.428893 -115.488431 -1.902869 -4.074406 2.621000 -0.777440 -1.843340 1.083423 -0.777440 -1.843340 1.083425 -0.579763 -1.383890 0.810153 1.572182 -13.004024 -4.802099 1.012172 11.988598 -8.470054 9.494421 4.912730 -1.208722 42.879108 -14.921595 -13.935175 -22.678564 -61.567755 83.071479 -41.981467 38.783126 51.036160 -8.037458 5.056751 -6.895382 -39.659015 -11.239775 18.425941 -3.514426 -65.685356 -59.723604 30.365235 17.429256 -75.066750 -8.248233 3.233028 -8.752262 6.714870 -20.816098 -15.737237 -4.582192 8.965484 -4.725051 2.864627 2.396856 0.219428 -0.889485 -0.720552 4.337288 1.082638 -5.997797 -0.409412 0.300471 0.898968 9.400721 -0.716871 1.129418 -0.083931 
47.572338 32.954498 83.394463 -3.758005 2.449571 -115.117183 -1.824319 -4.117235 2.483511 -0.727109 -1.851768 1.050487 -0.727109 -1.851768 1.050482 -0.542103 -1.390083 0.785592 1.503769 -12.977797 -4.807016 0.878863 12.033059 -8.508551 9.472431 4.929816 -1.122989 42.916565 -14.598493 -14.214870 -22.959742 -61.507588 83.261215 -41.930173 38.862298 51.128474 -8.079037 5.019111 -6.811831 -39.693327 -11.481454 18.204186 -3.497312 -65.686653 -59.717300 30.451125 17.451398 -75.012484 -8.304965 3.493367 -8.228691 6.545430 -21.010871 -17.113152 -4.563597 8.998962 -4.214230 2.708662 1.826303 0.176774 -1.128373 -0.458069 3.031617 1.696482 -5.684672 -3.576159 0.397491 0.325617 9.574817 -0.893785 0.973433 -0.061004 
47.402782 33.365200 83.429916 -3.698412 2.523063 -114.738859 -1.790423 -4.127590 2.332014 -0.702722 -1.864437 1.010672 -0.702722 -1.864438 1.010670 -0.523912 -1.399496 0.755793 1.483320 -12.948897 -4.808113 0.837893 12.085414 -8.520218 9.421002 4.952590 -1.116745 43.006754 -14.521361 -14.240755 -23.099152 -61.374393 83.234639 -41.848883 38.848412 51.218929 -8.134667 4.983944 -6.822605 -39.801380 -11.674171 18.215126 -3.553464 -65.550575 -59.627551 30.590573 17.613705 -75.095676 -8.310534 4.024584 -7.130986 6.539685 -21.237105 -17.888183 -4.897626 8.847125 -4.803124 2.636142 1.367611 0.152045 -1.200466 -0.154496 0.497365 2.116272 -5.318391 -6.053438 0.439699 -0.288665 9.454238 -1.119286 0.851122 -0.044618 
47.144588 33.823421 83.449654 -3.617335 2.583492 -114.455399 -1.773199 -4.091467 2.239909 -0.699269 -1.870826 0.976760 -0.699270 -1.870825 0.976759 -0.521416 -1.404243 0.730364 1.508415 -12.953297 -4.814121 0.883302 12.078494 -8.521108 9.383722 4.904688 -1.168909 43.073980 -14.599654 -14.044302 -23.216834 -61.226164 83.188316 -41.772942 38.784164 51.282027 -8.137940 4.914644 -6.838110 -39.918504 -11.688568 18.343971 -3.432169 -65.449714 -59.705129 30.708647 17.777029 -75.180432 -8.297824 4.492616 -5.840491 6.482006 -21.340701 -17.883121 -5.203989 8.747549 -5.938807 2.505268 0.887868 0.186788 -1.069491 0.379594 -2.940557 2.527854 -4.995541 -7.674191 0.279763 -1.023851 9.053868 -1.412076 0.767270 -0.089759 
46.769871 34.322685 83.447853 -3.489260 2.787317 -114.026306 -1.898525 -3.928502 1.952017 -0.702315 -1.876947 0.966700 -0.702316 -1.876947 0.966706 -0.523721 -1.408828 0.722806 1.564352 -12.983843 -4.841611 0.979975 12.024043 -8.549058 9.387512 4.893462 -1.223573 43.015428 -14.765622 -13.818163 -23.353252 -61.136142 83.302661 -41.771309 38.732114 51.290155 -8.083870 4.873658 -6.822604 -40.008957 -11.529016 18.455175 -3.233208 -65.449297 -59.884626 30.760505 17.805801 -75.160768 -8.417879 5.031296 -5.406551 6.089293 -21.296663 -17.268299 -5.447956 8.619879 -6.457331 2.344020 0.384541 0.183004 -1.188403 0.997209 -6.842162 2.972128 -4.681824 -8.772537 0.147087 -1.770041 8.393417 -1.682190 0.810747 -0.266604 
46.485336 34.773952 83.428429 -3.351708 2.867197 -113.780078 -1.954171 -3.822593 1.786587 -0.699246 -1.869303 0.991081 -0.699246 -1.869304 0.991081 -0.521358 -1.403118 0.741103 1.631004 -13.032505 -4.891929 1.088708 11.935726 -8.615259 9.394270 4.976147 -1.267659 42.828500 -14.968763 -13.653213 -23.438725 -61.176604 83.530925 -41.837487 38.718894 51.253251 -8.053939 4.935576 -6.790789 -40.075425 -11.341363 18.554345 -3.139887 -65.432720 -59.980030 30.742251 17.602291 -75.110737 -8.440020 5.341091 -5.571226 5.325813 -21.147782 -15.840320 -5.585473 8.512325 -6.500958 2.221183 -0.017401 0.176944 -1.135876 1.526181 -10.286092 3.320571 -4.318626 -9.635380 -0.172963 -2.346706 7.448858 -1.729679 0.817206 -0.380753 
46.295162 35.149792 83.339195 -3.192676 2.882488 -113.735682 -1.975296 -3.743261 1.731355 -0.690838 -1.841192 1.048776 -0.690838 -1.841192 1.048772 -0.514925 -1.382086 0.784432 1.694524 -13.099867 -4.946864 1.190723 11.812396 -8.690846 9.367468 4.966970 -1.262358 42.609305 -15.067732 -13.479808 -23.440676 -61.324567 83.736063 -41.941443 38.721886 51.185615 -8.057252 5.079591 -6.718462 -40.159890 -11.187882 18.642708 -3.017651 -65.346045 -60.069984 30.646697 17.232308 -75.076743 -8.300265 5.713113 -5.486705 4.354849 -20.989173 -13.633340 -4.875496 8.681070 -5.614204 1.415044 -0.490362 0.173443 -0.947874 1.904497 -12.713773 3.462223 -3.880020 -10.281464 -0.564516 -2.759658 6.189540 -1.535244 0.824397 -0.475634 
46.191498 35.446758 83.252037 -3.057820 2.850964 -114.013431 -1.993326 -3.697536 1.890499 -0.678668 -1.798741 1.128953 -0.678669 -1.798741 1.128952 -0.505637 -1.350317 0.844648 1.744779 -13.171899 -4.982965 1.275536 11.680365 -8.736013 9.314419 4.967956 -1.232885 42.456220 -15.236564 -13.386044 -23.437282 -61.457762 83.896341 -42.043902 38.767594 51.127384 -8.093749 5.282325 -6.610551 -40.255011 -11.066059 18.741508 -2.700460 -65.265162 -60.317954 30.526882 16.807229 -75.004759 -7.562562 5.825237 -4.374649 2.868111 -20.540940 -9.988589 -3.430934 9.138255 -4.859552 0.129062 -1.043185 0.196391 -0.689100 2.128164 -13.713897 3.450371 -3.502344 -10.512021 -1.181492 -2.868136 4.537950 -0.980236 0.742416 -0.527310 
46.027855 35.535660 83.162758 -3.046310 2.733649 -114.504098 -1.981901 -3.748132 2.208737 -0.673732 -1.769326 1.188584 -0.673732 -1.769326 1.188587 -0.501820 -1.328314 0.889418 1.782179 -13.233608 -4.979236 1.351503 11.568226 -8.711390 9.301617 5.059987 -1.127885 42.344950 -15.512160 -13.440584 -23.326775 -61.546978 83.919522 -42.190092 38.850280 51.027578 -8.165682 5.547702 -6.476370 -40.322042 -10.984482 18.865706 -2.377404 -65.280380 -60.551580 30.338252 16.496068 -74.941696 -6.799925 5.526455 -1.751520 1.652192 -19.910647 -5.880347 -1.963843 9.706048 -5.276422 -0.911024 -1.467673 0.368911 -0.358694 2.172815 -13.221540 3.372092 -3.300808 -10.354989 -2.078084 -2.661469 2.770906 -0.186279 0.537179 -0.642892 
45.968063 35.400436 83.039574 -3.045478 2.736575 -114.738203 -2.065330 -3.751944 2.298191 -0.681408 -1.756406 1.204895 -0.681408 -1.756405 1.204898 -0.507554 -1.318656 0.901644 1.814063 -13.254079 -4.941729 1.428221 11.533451 -8.626602 9.325087 5.153146 -1.095583 42.252711 -15.734961 -13.479862 -22.934915 -61.622008 83.702049 -42.262567 38.844597 50.924186 -8.205713 5.650911 -6.458266 -40.340238 -10.830798 18.935979 -2.306914 -65.342630 -60.517423 30.227952 16.430116 -75.027224 -6.598427 5.711965 1.794981 1.186690 -19.710391 -3.721252 -0.207629 10.276527 -4.788143 -1.785630 -1.724663 0.592297 -0.165043 2.123980 -11.913163 3.294550 -3.136441 -9.989171 -2.758335 -2.333574 1.033540 0.353171 0.336668 -0.868078 
45.770027 35.249245 82.869217 -3.128803 2.969216 -114.825479 -2.400656 -3.721010 2.295799 -0.676137 -1.750219 1.174928 -0.676137 -1.750219 1.174928 -0.503700 -1.313972 0.879189 1.819512 -13.243363 -4.879740 1.463009 11.555848 -8.507315 9.344354 5.062523 -1.144749 42.177730 -15.675866 -13.399721 -22.510280 -61.628626 83.451347 -42.184450 38.727606 50.891255 -8.178866 5.486980 -6.527495 -40.386693 -10.731185 18.911073 -2.432672 -65.302674 -60.263736 30.223403 16.558404 -75.177208 -6.807130 5.996908 5.591475 0.856716 -20.013880 -3.220141 2.109104 11.179263 -2.933643 -2.547542 -1.812571 0.789858 -0.246332 1.890235 -10.266000 3.356456 -2.548866 -9.779192 -3.071567 -2.297916 0.061379 0.329829 0.266108 -1.512973 
45.612152 35.141155 82.695366 -3.237614 3.153346 -114.820193 -2.717499 -3.736132 2.288746 -0.640344 -1.736883 1.108534 -0.640345 -1.736883 1.108533 -0.477072 -1.303831 0.829518 1.795483 -13.211176 -4.814952 1.441956 11.616481 -8.395439 9.401616 5.017570 -1.192813 42.125731 -15.437344 -13.462077 -22.530986 -61.482576 83.567091 -41.984244 38.579726 50.971373 -8.116671 5.268336 -6.600062 -40.518345 -10.901245 18.854942 -2.503827 -65.141693 -60.037458 30.304696 16.751432 -75.209740 -6.564153 6.137884 8.807369 0.649867 -20.561309 -3.024195 3.666554 12.189094 -0.928811 -2.970053 -1.802624 0.778857 -0.530348 1.312831 -8.589799 3.640488 -1.384479 -10.316658 -3.215248 -2.337654 -0.021429 0.060906 0.072667 -2.216899 
45.654770 35.391281 82.560295 -3.324007 2.995789 -114.818991 -2.701704 -3.878878 2.367150 -0.585940 -1.715299 1.016751 -0.585940 -1.715300 1.016753 -0.436570 -1.287456 0.760866 1.759564 -13.168259 -4.758491 1.394449 11.696077 -8.304561 9.517338 5.304420 -1.273452 42.056972 -15.274822 -13.767571 -23.285471 -61.272145 84.280149 -41.775903 38.492952 51.134758 -8.144416 5.186450 -6.753548 -40.627977 -11.220562 18.938614 -2.630233 -65.010861 -59.763643 30.387778 16.909800 -75.144300 -5.505135 6.109969 11.072320 0.826717 -21.169946 -2.982956 3.618967 12.780958 0.287425 -2.855589 -1.556498 0.503550 -0.653732 0.730560 -7.282939 3.810297 -0.488941 -11.407817 -3.387764 -1.990827 0.304199 -0.006091 -0.330360 -2.480401 
